<?xml version="1.0" encoding="UTF-8"?>
<svg width="98px" height="98px" viewBox="0 0 98 98" version="1.1" xmlns="http://www.w3.org/2000/svg" xmlns:xlink="http://www.w3.org/1999/xlink">
    <!-- Generator: Sketch 51.3 (57544) - http://www.bohemiancoding.com/sketch -->
    <title>Shape</title>
    <desc>Created with Sketch.</desc>
    <defs></defs>
    <g id="**1-–-Homepage" stroke="none" stroke-width="1" fill="none" fill-rule="evenodd">
        <path d="M48.8675676,0 C21.8513514,0 0,21.78 0,48.576 C0,75.372 21.8513514,97.284 48.8675676,97.284 C75.7513514,97.284 97.7351351,75.504 97.7351351,48.576 C97.6027027,21.78 75.7513514,0 48.8675676,0 Z M48.8675676,95.7 C22.7783784,95.7 1.72162162,74.58 1.72162162,48.708 C1.72162162,22.704 22.9108108,1.716 48.8675676,1.716 C74.8243243,1.716 96.0135135,22.836 96.0135135,48.708 C96.0135135,74.58 74.8243243,95.7 48.8675676,95.7 Z M67.4081081,46.464 L39.4648649,30.36 C37.2135135,29.04 35.4918919,30.228 35.4918919,32.736 L35.4918919,64.284 C35.4918919,66.132 36.4189189,67.32 37.8756757,67.32 C38.4054054,67.32 39.0675676,67.056 39.8621622,66.66 L66.6135135,51.216 C68.0702703,50.424 68.8648649,49.5 68.8648649,48.576 C68.7324324,48.18 68.6,47.256 67.4081081,46.464 Z M65.6864865,50.028 L38.9351351,65.34 C38.4054054,65.736 38.0081081,65.736 37.7432432,65.736 C37.0810811,65.736 37.0810811,64.68 37.0810811,64.284 L37.0810811,32.736 C37.0810811,32.604 37.0810811,31.284 37.7432432,31.284 C37.8756757,31.284 38.1405405,31.284 38.6702703,31.68 L66.6135135,47.784 C66.7459459,47.916 67.2756757,48.312 67.1432432,48.576 C67.1432432,48.708 67.0108108,49.236 65.6864865,50.028 Z" id="Shape" fill="#666666" fill-rule="nonzero"></path>
    </g>
</svg>