<?xml version="1.0" encoding="UTF-8"?>
<svg xmlns="http://www.w3.org/2000/svg" width="480.47" height="107.66" viewBox="0 0 480.47 107.66">
  <defs>
    <style>.a{fill:#8e3dbc;}</style>
  </defs>
  <title>Proprio Logo Purple</title>
  <path class="a" d="M34.81,42.81c0,8.33-6.59,8.33-13.27,8.33H18.44v-17h3.11c7.15,0,13.27.09,13.27,8.69M54,42.26C54,26.6,43.47,19.81,28.23,19.81H0V88.07H18.44V65.44H28.89C45,65.44,54,58.38,54,42.26" transform="translate(0 -0.17)"></path>
  <path class="a" d="M74.61,39.32H57.49V88.07H74.61V68.59C74.61,60.31,77,54,86.47,54a13.88,13.88,0,0,1,7.25,1.6V39.14H90.42c-6.68,0-12.33,2.64-15.62,8.57h-.19Z" transform="translate(0 -0.17)"></path>
  <path class="a" d="M135.11,64c0,6.12-4,10.82-11,10.82s-11-4.7-11-10.82c0-5.93,4-10.92,11-10.92s11,5,11,10.92m18.07,0c0-16.47-13.55-25.78-29.07-25.78S95,47.52,95,64s13.64,25.69,29.07,25.69S153.17,80.35,153.17,64" transform="translate(0 -0.17)"></path>
  <path class="a" d="M195.51,64c0,6.12-4,10.82-11,10.82s-11-4.7-11-10.82c0-5.93,4-10.91,11-10.91s11,5,11,10.91m17.69.1c0-13.83-10-25.88-24.37-25.88-5.65,0-11.48,2.26-14.58,7.06h-.19V39.32H156.94v68.51h17.12V83.46c3.67,4.24,9.41,6.21,15,6.21,14.3,0,24.18-11.67,24.18-25.59" transform="translate(0 -0.17)"></path>
  <path class="a" d="M233.7,39.32H216.58V88.07H233.7V68.59c0-8.28,2.35-14.58,11.85-14.58a13.88,13.88,0,0,1,7.25,1.6V39.14h-3.29c-6.68,0-12.33,2.64-15.62,8.57h-.19Z" transform="translate(0 -0.17)"></path>
  <rect class="a" x="255.91" y="39.11" width="17.1" height="48.7"></rect>
  <path class="a" d="M316.43,63.91c0,6.11-4,10.81-11,10.81s-11-4.7-11-10.81c0-5.92,4-10.9,11-10.9s11,5,11,10.9m18,0c0-16.45-13.53-25.75-29-25.75s-29,9.3-29,25.75,13.63,25.66,29,25.66,29-9.3,29-25.66" transform="translate(0 -0.17)"></path>
  <path class="a" d="M264.46,14.95A9.68,9.68,0,1,0,274,24.63a9.67,9.67,0,0,0-9.59-9.68" transform="translate(0 -0.17)"></path>
  <polygon class="a" points="410.23 0 404.75 9.5 432.61 9.5 427.13 0 410.23 0"></polygon>
  <polygon class="a" points="387.77 0 382.29 9.5 398.37 9.5 398.37 0 387.77 0"></polygon>
  <polygon class="a" points="439.06 0 439.06 9.5 455.07 9.5 449.58 0 439.06 0"></polygon>
  <polygon class="a" points="365.58 38.92 357.14 53.55 365.56 68.14 368 68.14 368 38.92 365.58 38.92"></polygon>
  <polygon class="a" points="410.23 38.92 401.78 53.55 410.21 68.14 427.15 68.14 435.57 53.55 427.13 38.92 410.23 38.92"></polygon>
  <polygon class="a" points="469.24 38.92 469.24 68.14 471.69 68.14 480.11 53.55 471.66 38.92 469.24 38.92"></polygon>
  <polygon class="a" points="387.8 38.92 379.35 53.55 387.77 68.14 398.19 68.14 398.19 38.92 387.8 38.92"></polygon>
  <polygon class="a" points="439.06 38.92 439.06 68.14 450.08 68.14 458.51 53.55 450.06 38.92 439.06 38.92"></polygon>
  <polygon class="a" points="410.23 19.25 401.78 33.87 402.75 35.55 434.6 35.55 435.57 33.87 427.13 19.25 410.23 19.25"></polygon>
  <polygon class="a" points="365.76 19.27 357.32 33.89 358.28 35.57 368.18 35.57 368.18 19.27 365.76 19.27"></polygon>
  <polygon class="a" points="469.24 19.25 469.24 35.55 479.14 35.55 480.11 33.87 471.66 19.25 469.24 19.25"></polygon>
  <polygon class="a" points="387.77 19.25 379.32 33.87 380.29 35.55 398.37 35.55 398.37 19.25 387.77 19.25"></polygon>
  <polygon class="a" points="439.24 19.25 439.24 35.55 457.06 35.55 458.03 33.87 449.58 19.25 439.24 19.25"></polygon>
  <polygon class="a" points="402.75 71.51 401.78 73.18 410.23 87.81 427.12 87.81 435.57 73.18 434.6 71.51 402.75 71.51"></polygon>
  <polygon class="a" points="358.28 71.51 357.32 73.18 365.77 87.81 368.18 87.81 368.18 71.51 358.28 71.51"></polygon>
  <polygon class="a" points="380.27 71.51 379.3 73.18 387.75 87.81 398.14 87.81 398.14 71.51 380.27 71.51"></polygon>
  <polygon class="a" points="468.85 71.51 468.85 87.81 472.02 87.81 480.47 73.18 479.5 71.51 468.85 71.51"></polygon>
  <polygon class="a" points="439.06 71.53 439.06 87.25 449.62 87.25 458.03 72.68 457.37 71.53 439.06 71.53"></polygon>
  <polygon class="a" points="404.74 97.66 410.23 107.16 427.12 107.16 432.61 97.66 404.74 97.66"></polygon>
  <polygon class="a" points="382.29 97.66 387.77 107.16 398.37 107.16 398.37 97.66 382.29 97.66"></polygon>
  <polygon class="a" points="439.06 97.37 439.06 107.34 449.58 107.34 455.34 97.37 439.06 97.37"></polygon>
</svg>
